<?xml version="1.0" encoding="utf-8"?>
<!-- Generator: Adobe Illustrator 28.2.0, SVG Export Plug-In . SVG Version: 6.00 Build 0)  -->
<svg version="1.1" id="Layer_1" xmlns="http://www.w3.org/2000/svg" xmlns:xlink="http://www.w3.org/1999/xlink" x="0px" y="0px"
	 viewBox="0 0 494.5 137.6" style="enable-background:new 0 0 494.5 137.6;" xml:space="preserve">
<style type="text/css">
	.st0{fill-rule:evenodd;clip-rule:evenodd;fill:#003564;}
	.st1{fill:#003564;}
</style>
<g>
	<path class="st0" d="M282.2,44c11.9-0.2,21.3,9.9,21.2,24.7c-0.1,14.8-9.1,24.6-21.2,24.7c-12,0.1-21-10.1-21.2-24.7
		C261,54.1,270.3,44.2,282.2,44 M276.9,28l-1.3,0.2l-1.9,0.3c-21.8,4.2-34.4,23-32.2,45.1l0.2,1.4l0.2,1.1
		c3.4,22.2,21.5,35.2,44,33.4l1.6-0.2l1.3-0.2l1.1-0.2l0.8-0.2c18-3.3,30.6-17.2,32.3-35.4l0.2-2.1V66l-0.2-2.1
		c-0.8-8.7-4.4-17.9-10.6-24.1l-0.2-0.3l-0.2-0.2c-6-6-13.1-9.6-21.6-11l-1-0.2l-1.3-0.2l-1.6-0.2h-8.2L276.9,28z"/>
	<path class="st0" d="M130.4,44c11.9-0.2,21.3,9.9,21.2,24.7c-0.1,14.8-9.2,24.6-21.2,24.7c-12,0.1-21-10.1-21.2-24.7
		C109.1,54.1,118.5,44.2,130.4,44 M125.2,28l-1.3,0.2l-1.1,0.2l-0.8,0.2l-0.8,0.2c-7.6,1.5-14.8,5.1-20.2,10.6l-0.2,0.2l-0.2,0.2
		l-0.3,0.3c-0.7,0.7-1.5,1.8-2.2,2.5L98,42.8L97.9,43c-0.3,0.4-0.6,0.9-1,1.3l-0.2,0.3l-0.2,0.2c-0.4,0.5-0.8,1.2-1.1,1.7l-0.2,0.3
		l-0.2,0.2c-2.6,4.6-4.4,9.6-5.1,14.9L89.9,63c-0.4,3.8-0.4,7.8,0,11.6l0.2,1.3c0.4,2.9,1.1,5.7,2.1,8.4l0.2,0.5l0.2,0.3
		c0.6,1.8,1.5,3.5,2.4,5.2l0.2,0.2l0.2,0.3c0.3,0.7,0.8,1.2,1.1,1.9l0.2,0.2l0.2,0.3c0.5,0.4,0.6,1,1.1,1.4l0.2,0.3l0.2,0.2
		c0.7,1,1.5,1.9,2.4,2.7l0.2,0.2c0.4,0.9,1.4,1.2,1.9,1.9l0.2,0.2c0.5,0.6,0.5,0.4,1,0.8l0.2,0.2l0.2,0.2l0.2,0.2l0.3,0.2
		c0.5,0.6,0.4,0.2,1,0.8l0.3,0.2l0.2,0.2c0.7,0.3,0.2,0.4,1.3,0.8l0.2,0.2l0.3,0.2l0.2,0.2l0.3,0.2c4.3,2.6,9.1,4.3,14.1,5.1l1,0.2
		c4.6,0.6,9.3,0.6,13.9,0l1-0.2c8.4-1.4,15.3-4.8,21.4-10.5l0.2-0.2l0.2-0.2l0.2-0.2l0.2-0.2c0.7-0.8,1.5-1.5,2.1-2.4l0.2-0.2
		l0.2-0.2c0.8-1,1.5-2,2.2-3l0.3-0.6l0.2-0.2l0.2-0.3l0.2-0.2c0.8-1.4,1.5-2.8,2.2-4.3l0.2-0.5l0.2-0.3c1-2.4,1.9-5.2,2.4-7.8
		l0.2-0.8l0.2-0.8l0.2-1.1l0.2-1.3l0.2-1.6v-7.6c-0.7-9.6-4.3-18.6-10.9-25.4l-0.3-0.3L160,39l-0.2-0.2l-0.2-0.2
		c-0.8-0.9-1.5-1.3-2.2-2.1l-0.3-0.2l-0.2-0.2l-0.2-0.2c-0.4-0.4-0.4-0.2-1-0.8l-0.3-0.2l-0.2-0.2c-0.3-0.2-0.9-0.5-1.1-0.8
		l-0.3-0.2l-0.3-0.2l-0.2-0.2l-0.3-0.2l-0.2-0.2c-1.4-0.8-2.8-1.5-4.3-2.2l-0.5-0.2l-0.3-0.2c-2.4-1-4.8-1.7-7.4-2.2l-0.8-0.2
		l-0.8-0.2l-1.1-0.2l-1.1-0.2l-1.6-0.2h-8.2L125.2,28z"/>
	<path class="st0" d="M43.6,74.6c13-2.2,20.5,1.4,21.6,7.7c1.3,7.7-5.5,12.6-21.6,11.1 M43.6,44.4c12.2-2,19.9,1.2,20.3,7
		c0.6,7.9-5.2,11.6-20.3,10.2V44.4z M40.6,28.5l-2.4,0.2l-2.1,0.2L34.2,29l-1.6,0.2L31,29.3l-1.4,0.2l-1.3,0.2L27,29.8l-1.1,0.2
		l-0.2,0.2v77.3l0.6,0.2l2.9,0.3c16.3,1.5,41.2,4.2,52.6-11.3l0.2-0.2l0.2-0.3l0.2-0.2c3.9-6.2,4.1-15-0.3-21l-0.2-0.2l-0.2-0.3
		l-0.2-0.2l-0.2-0.2c-0.7-0.6-0.6-0.8-1.1-1.3L80,72.8l-0.2-0.2c-0.6-0.6-0.5-0.6-1.3-1.1l-0.2-0.2l-0.2-0.2l-0.3-0.2
		c-1.8-1.4-4-2.3-6.1-3.2l-0.5-0.2l-0.5-0.2l-0.5-0.2l-0.5-0.2v-0.2l0.5-0.2l0.3-0.2l0.3-0.2c3.1-1.4,5.9-3.3,8.2-5.9l0.2-0.2
		l0.2-0.2l0.2-0.3c0.9-1,2-3,2.4-4.3l0.2-0.5l0.2-0.5c1.1-4.3,0.9-8.6-1.1-12.5L81.1,42l-0.2-0.2l-0.2-0.3l-0.2-0.3l-0.2-0.2
		l-0.2-0.3l-0.2-0.3c-0.6-0.6-0.2-0.4-0.8-1l-0.2-0.3L79,39c-0.3-0.3-0.6-0.6-1-1l-0.3-0.3l-0.2-0.2l-0.2-0.2c-0.3-0.3-0.6-0.6-1-1
		l-0.2-0.2l-0.2-0.2L75.8,36l-0.3-0.3l-0.3-0.2L75,35.3l-0.2-0.2L74.5,35l-0.2-0.2L74,34.7l-0.2-0.2c-5.3-3.5-11.8-5.2-18.1-5.9
		l-1.6-0.2l-2.2-0.2h-8.3L40.6,28.5z"/>
	<path class="st0" d="M197.5,45.5v21.7c11,1.5,15.6-1.1,17.8-3.9c3.7-4.7,3.5-12.3-1.6-15.9C208.3,43.6,199.6,45.4,197.5,45.5
		 M192.9,28.7l-3,0.2l-2.6,0.2l-2.1,0.2l-3.5,0.3l-1.4,0.2l-1.3,0.2v78.5h18.6l0-25.9l0.3,0.2l3.8,0.2h4.8l1-0.2v0.3l0.2,0.3
		c2.2,4,4.2,8.1,6.4,12.1l0.2,0.3l0.2,0.3c2.1,4.1,4.3,8.1,6.4,12.2l0.2,0.2h21.1v-0.3l-0.2-0.3l-0.2-0.2c-3.6-6.1-7.4-12.1-11-18.1
		l-0.2-0.3l-0.2-0.2l-0.2-0.3c-1.7-2.8-3.5-5.6-5.1-8.4l-0.2-0.2l-0.2-0.3l-0.2-0.3l-0.2-0.2c-0.3-0.4-0.5-0.9-0.8-1.3v-0.2l0.2-0.2
		c0.5-0.2,0.9-0.5,1.3-0.8l0.3-0.2l0.2-0.2l0.2-0.2c1.1-0.6,2.1-1.7,3-2.4l0.2-0.2c0.4-0.4,0.7-0.7,1.1-1.1l0.2-0.3
		c0.8-0.7,1.7-1.9,2.2-2.7l0.2-0.2l0.2-0.3c0.9-1.2,1.6-2.6,2.2-4l0.2-0.3l0.2-0.5l0.2-0.3c2.8-7.3,2.2-16.2-1.9-22.9l-0.2-0.2
		l-0.2-0.3l-0.2-0.2c-5-7.6-14.5-10.8-23.4-11.8l-1.8-0.2l-3-0.2h-6.7L192.9,28.7z"/>
	<path class="st0" d="M350.2,28l-1.1,0.2l-1,0.2l-0.8,0.2l-0.8,0.2c-12.5,2.8-21.2,13-18.9,26.4l0.2,0.8l0.2,0.8l0.2,0.5l0.2,0.6
		c0.6,1.7,1.7,4.2,2.9,5.6l0.2,0.3l0.2,0.2c0.8,1.2,1.8,2.2,2.9,3.2l0.2,0.2l0.2,0.2l0.3,0.2c2.9,2.7,7.1,4.8,10.7,6.4l0.5,0.2
		l0.3,0.2l0.5,0.2l0.3,0.2l0.3,0.2l0.5,0.2c3.6,1.6,8.1,3.4,10.7,6.4l0.2,0.2l0.2,0.3l0.2,0.2l0.2,0.3c1,1.2,1,4.2,0.6,5.6l-0.2,0.5
		l-0.2,0.3c-0.4,0.9-0.6,1-1.1,1.7l-0.3,0.2l-0.2,0.2l-0.2,0.2l-0.2,0.2c-0.9,0.4-1.7,0.9-2.7,1.1l-0.6,0.2l-1,0.2
		c-3.4,0.3-6.8-0.2-10.1-1l-0.6-0.2c-0.9-0.3-1.7-0.5-2.6-0.8l-0.5-0.2c-2.2-0.8-4.5-1.8-6.6-3L333,87l-0.3-0.2l-0.2-0.2
		c-0.5-0.2-1.3-0.8-1.8-1.1l-0.3-0.2l-0.2-0.2l-0.3-0.2l-0.2-0.2l-0.3-0.2h-0.2l-0.2,0.2l-0.2,0.6l-0.2,0.5l-0.2,0.5l-0.2,0.3
		l-0.2,0.5l-0.2,0.5l-0.2,0.3c-0.8,2.1-1.9,4.1-2.9,6.2l-0.2,0.2l-0.3,0.6c-0.3,0.5-0.8,1.2-1.1,1.7l-0.2,0.3l-0.2,0.2
		c-0.1,0.4-0.8,1-1,1.4l-0.2,0.2l-0.2,0.2l-0.2,0.3l-0.2,0.2l-0.2,0.2v0.5l0.2,0.2l0.2,0.2l0.3,0.2l0.3,0.2l0.2,0.2
		c4.9,2.8,10.1,5.1,15.5,6.7l0.5,0.2l0.6,0.2c9.6,2.9,20.7,2.2,29.3-3l0.3-0.2l0.2-0.2l0.3-0.2l0.2-0.2l0.3-0.2
		c1.2-0.9,2.3-1.8,3.4-2.9l0.3-0.3l0.2-0.3l0.2-0.2l0.2-0.2l0.2-0.2l0.2-0.2l0.2-0.2l0.2-0.3l0.2-0.2l0.2-0.2L375,99
		c0.3-0.5,0.9-1.2,1.1-1.7l0.2-0.3l0.2-0.2l0.2-0.3l0.2-0.3c3.8-6.8,3.9-17.7-1-24l-0.2-0.3l-0.2-0.2l-0.2-0.2l-0.2-0.3l-0.2-0.2
		l-0.2-0.2c-2.2-2.7-5.3-4.9-8.3-6.5l-0.2-0.2l-0.3-0.2c-4.6-2.5-9.6-4.2-14.2-6.5l-0.2-0.2l-0.6-0.3l-0.3-0.2l-0.3-0.2l-0.2-0.2
		c-1.3-0.8-2.7-1.9-3.4-3.3l-0.2-0.3l-0.2-0.3c-0.9-2.6-0.1-5.7,2.4-7l0.2-0.2l0.3-0.2l0.3-0.2c7.5-2.9,15.7,0.8,22.1,4.6L372,50
		l0.3,0.2l0.2,0.2l0.3,0.2h0.5l0.2-0.6l0.2-0.5l0.2-0.6c0.7-2.4,1.4-4.9,2.1-7.3l0.2-0.5l0.2-0.6l0.2-0.5c0.2-0.9,0.5-2,0.8-2.9
		l0.2-0.6l0.2-0.5l0.2-0.6l0.2-0.5v-0.8l-0.2-0.2l-0.2-0.2l-0.3-0.2l-0.2-0.2l-0.3-0.2l-0.3-0.2c-4.4-2.6-10.6-4.3-15.7-4.9
		l-1.6-0.2h-7.4"/>
	<polyline class="st0" points="418.3,108.2 468.8,108.2 468.8,91.4 437,91.4 437,29.1 418.3,29.1 	"/>
	<rect x="386.9" y="29.1" class="st1" width="18.6" height="79.1"/>
	<path class="st1" d="M458,49.1c-5.6,0-10.2-4.6-10.2-10.1c0-5.6,4.6-10.1,10.2-10.1c5.6,0,10.2,4.6,10.2,10.1
		C468.2,44.6,463.6,49.1,458,49.1 M458,29.5c-5.3,0-9.6,4.3-9.6,9.5c0,5.2,4.3,9.5,9.6,9.5c5.3,0,9.6-4.3,9.6-9.5
		C467.6,33.7,463.3,29.5,458,29.5"/>
	<path class="st0" d="M456.9,35.9v2.9c1.5,0.2,2.1-0.1,2.4-0.5c0.5-0.6,0.5-1.6-0.2-2.1C458.3,35.6,457.1,35.9,456.9,35.9
		 M456.3,33.6l-0.4,0c-0.4,0-0.9,0.1-1.3,0.1l-0.2,0v10.5h2.5v-3.5l0,0l0.5,0h0.6l0.1,0v0l0,0.1c0.1,0.2,0.2,0.5,0.4,0.7l0,0l0,0
		c0.1,0.3,0.3,0.5,0.4,0.8l0,0l0,0l0,0c0.3,0.6,0.6,1.1,0.9,1.7l0,0h2.8v0l0,0l0,0c-0.5-0.8-1-1.6-1.5-2.4l0,0l0,0l0,0
		c-0.2-0.4-0.5-0.8-0.7-1.1l0,0l0,0l0,0l0,0l-0.1-0.2v0l0,0l0,0l0,0l0,0c0,0,0.1-0.1,0.2-0.1l0,0l0.1-0.1l0,0l0,0l0.1-0.1l0,0l0,0
		l0,0l0,0l0,0l0,0l0,0l0,0l0,0l0.3-0.4l0,0l0,0l0.3-0.5l0,0l0-0.1c0.4-0.9,0.3-2.2-0.2-3.1l0,0l0,0c-0.1-0.1-0.2-0.3-0.3-0.4l0,0
		l0,0c-0.1-0.2-0.3-0.3-0.5-0.4l0,0l0,0c-0.6-0.4-1.4-0.6-2.1-0.7l-0.2,0l-0.2,0l-0.4,0H457L456.3,33.6z"/>
</g>
</svg>
