<?xml version="1.0" encoding="utf-8"?>
<!-- Generator: Adobe Illustrator 16.0.4, SVG Export Plug-In . SVG Version: 6.00 Build 0)  -->
<!DOCTYPE svg PUBLIC "-//W3C//DTD SVG 1.1//EN" "http://www.w3.org/Graphics/SVG/1.1/DTD/svg11.dtd">
<svg version="1.1" id="Ebene_1" xmlns="http://www.w3.org/2000/svg" xmlns:xlink="http://www.w3.org/1999/xlink" x="0px" y="0px"
	 width="227px" height="111px" viewBox="0 0 227 111" enable-background="new 0 0 227 111" xml:space="preserve">
<g id="Layer_1">
	<path fill="#2e59b8" d="M0,111h227V0H0V111z"/>
	<path fill="#FFFFFF" d="M50.146,39.129c-0.173,3.615,2.335,5.576,6.807,7.278c2.141,0.815,7.68,2.102,7.68,5.11
		c0,2.817-2.711,4.422-5.912,4.422c-2.692,0-5.151-1.047-7.238-2.571l-1.542,2.284c2.391,1.811,5.898,2.934,8.851,2.934
		c5.271,0,9.455-2.924,9.719-6.994c0.316-4.861-3.715-6.68-7.691-8.046c-4.584-1.577-6.902-2.728-6.902-4.634
		c0-2.068,1.783-3.699,5.89-3.699c2.266,0,4.604,0.904,6.416,2.168l1.308-2.15c-2.215-1.715-5.145-2.664-7.938-2.664
		C54.119,32.566,50.343,35.103,50.146,39.129 M177.062,35.584v-2.593h-15.978v2.593h6.028V58.16h3.882V35.584H177.062z
		 M159.269,35.584v-2.593h-15.976v2.593h6.032V58.16h3.879V35.584H159.269z M118.021,42.902c0,4.682,3.117,8.637,7.394,9.899
		c-2.655-1.64-4.423-4.573-4.423-7.924c0-5.139,4.166-9.303,9.303-9.303c3.391,0,6.355,1.811,7.984,4.519
		c-1.223-4.334-5.207-7.516-9.938-7.516C122.64,32.579,118.021,37.201,118.021,42.902 M141.015,42.902
		c0,7-5.672,12.688-12.674,12.688c-4.777,0-8.938-2.657-11.099-6.563c1.759,5.543,6.938,9.557,13.051,9.557
		c7.563,0,13.695-6.143,13.695-13.705c0-6.056-3.933-11.192-9.386-12.998C138.435,34.059,141.015,38.18,141.015,42.902
		 M110.29,43.104H98.104V32.991h-3.875V58.16h3.875V45.693h12.186V58.16h3.878V32.991h-3.878V43.104z M84,32.566
		c2.978,0,5.575,0.929,7.883,2.646l-1.44,2.076c-1.691-1.385-4.551-2.132-6.69-2.132c-6.034,0-9.589,4.261-9.589,10.271
		c0,6.479,4.26,10.567,9.589,10.567c2.315,0,4.585-0.557,6.488-1.862l1.364,2.062c-2.276,1.552-5.301,2.392-8.028,2.392
		c-8.969,0-13.537-6.158-13.537-13.088C70.039,39.171,75.002,32.566,84,32.566 M176.188,71.081
		c-0.496-0.285-0.896-0.384-1.269-0.384c-0.444,0-1.009,0.181-1.009,0.684c0,0.505,0.634,0.756,1.42,1.271
		c0.884,0.587,1.462,1.08,1.462,1.92c0,1.006-1.144,1.691-2.411,1.691c-0.785,0-1.671-0.302-2.123-0.757l0.606-0.612
		c0.399,0.324,0.934,0.601,1.487,0.601c0.58,0,1.172-0.265,1.172-0.851c0-0.697-0.715-0.994-1.367-1.405
		c-0.784-0.491-1.475-0.897-1.475-1.716c0-0.945,1.078-1.547,2.291-1.547c0.676,0,1.338,0.242,1.695,0.553L176.188,71.081z
		 M168.713,75.471c-0.483,0.422-1.089,0.795-1.723,0.795c-1.159,0-1.959-0.723-1.959-1.851c0-1.042,1.021-1.703,2.452-2.073
		l1.67-0.456c-0.055-0.731-0.704-1.2-1.381-1.2c-0.801,0-1.309,0.291-1.805,0.648l-0.482-0.538c0.688-0.575,1.392-0.819,2.356-0.819
		c1.034,0,2.552,0.293,2.552,2.043v2.638c0,0.452,0.066,1.03,0.303,1.466h-1.35c-0.166-0.254-0.193-0.639-0.193-1.023
		L168.713,75.471z M167.97,72.905c-1.093,0.286-1.658,0.743-1.658,1.497c0,0.623,0.498,1.021,0.996,1.021
		c0.881,0,2.012-0.949,1.846-2.822L167.97,72.905z M158.728,73.191c-0.012,1.199,0.967,2.304,2.332,2.304
		c0.635,0,1.407-0.205,1.892-0.515l0.358,0.586c-0.718,0.444-1.576,0.697-2.289,0.697c-2.153,0-3.576-1.154-3.576-3.263
		c0-2.077,1.714-3.024,3.271-3.024c2.096,0,2.801,1.644,2.662,3.215H158.728z M162.247,72.475c0-0.936-0.454-1.728-1.548-1.728
		c-1.322,0-1.845,0.96-1.888,1.728H162.247z M154.095,75.173h-0.027c-0.481,0.588-1.213,1.091-2.344,1.091
		c-1.865,0-3.049-1.295-3.049-3.215c0-1.561,1.297-3.072,3.186-3.072c0.939,0,1.779,0.313,2.207,0.891h0.027v-3.561h1.241v8.814
		h-1.241V75.173z M154.095,72.93c0-1.129-0.705-2.183-2.056-2.183c-1.435,0-2.026,0.983-2.026,2.255
		c0,1.282,0.635,2.493,1.944,2.493C153.46,75.495,154.095,74.261,154.095,72.93 M146.69,76.122h-1.242v-6h1.242V76.122z
		 M145.284,68.143c0-0.297,0.289-0.634,0.785-0.634c0.498,0,0.787,0.337,0.787,0.634c0,0.325-0.178,0.733-0.787,0.733
		C145.465,68.876,145.284,68.468,145.284,68.143 M136.378,76.121v-5.374h-1.104v-0.625h1.104v-0.729
		c0-1.608,1.242-2.088,2.014-2.088c0.358,0,0.787,0.06,1.088,0.252l-0.273,0.551c-0.206-0.049-0.4-0.084-0.678-0.084
		c-0.205,0-0.907,0.047-0.907,1.02v1.08h1.653v0.625h-1.653v5.374L136.378,76.121L136.378,76.121z M127.343,73.048
		c0-1.94,1.656-3.071,3.396-3.071c1.734,0,3.406,1.131,3.406,3.071c0,1.858-1.365,3.218-3.406,3.218
		C128.709,76.266,127.343,74.906,127.343,73.048 M128.681,73.048c0,1.128,0.442,2.447,2.059,2.447c1.625,0,2.066-1.319,2.066-2.447
		c0-1.077-0.51-2.301-2.066-2.301C129.19,70.747,128.681,71.971,128.681,73.048 M116.575,73.191
		c-0.014,1.199,0.965,2.304,2.331,2.304c0.634,0,1.405-0.205,1.889-0.515l0.36,0.586c-0.719,0.444-1.574,0.697-2.293,0.697
		c-2.149,0-3.57-1.154-3.57-3.263c0-2.077,1.711-3.024,3.27-3.024c2.098,0,2.799,1.644,2.66,3.215H116.575z M120.092,72.475
		c0-0.936-0.454-1.728-1.544-1.728c-1.324,0-1.849,0.96-1.892,1.728H120.092z M111.955,75.173h-0.029
		c-0.479,0.588-1.211,1.091-2.343,1.091c-1.861,0-3.048-1.295-3.048-3.215c0-1.561,1.294-3.072,3.187-3.072
		c0.937,0,1.777,0.313,2.204,0.891h0.029v-3.561h1.239v8.814h-1.239V75.173L111.955,75.173z M111.955,72.93
		c0-1.129-0.705-2.183-2.056-2.183c-1.434,0-2.027,0.983-2.027,2.255c0,1.282,0.635,2.493,1.945,2.493
		C111.321,75.495,111.955,74.261,111.955,72.93 M102.771,75.471c-0.485,0.422-1.092,0.795-1.728,0.795
		c-1.159,0-1.958-0.723-1.958-1.851c0-1.042,1.021-1.703,2.456-2.073l1.669-0.456c-0.054-0.731-0.704-1.2-1.379-1.2
		c-0.8,0-1.311,0.291-1.809,0.648l-0.482-0.538c0.691-0.575,1.396-0.819,2.359-0.819c1.035,0,2.553,0.293,2.553,2.043v2.638
		c0,0.452,0.068,1.03,0.302,1.466h-1.351c-0.166-0.254-0.193-0.639-0.193-1.023L102.771,75.471z M102.022,72.905
		c-1.088,0.286-1.652,0.743-1.652,1.497c0,0.623,0.495,1.021,0.99,1.021c0.884,0,2.018-0.949,1.851-2.822L102.022,72.905z
		 M87.903,70.866c0.564-0.576,1.393-0.89,2.152-0.89c1.09,0,1.766,0.397,2.192,0.89c0.662-0.528,1.601-0.89,2.371-0.89
		c1.53,0,2.305,0.865,2.345,2.139v4.006h-1.24v-3.575c0-0.866-0.248-1.728-1.516-1.728c-1.05,0-1.766,0.479-1.766,1.69v3.611h-1.243
		v-3.575c0-1.128-0.55-1.729-1.56-1.729c-1.047,0-1.725,0.589-1.725,1.74v3.562h-1.239V70.12h1.228V70.866z M79.494,71.081
		c-0.499-0.285-0.897-0.384-1.271-0.384c-0.439,0-1.007,0.181-1.007,0.684c0,0.505,0.636,0.756,1.421,1.271
		c0.883,0.587,1.463,1.08,1.463,1.92c0,1.006-1.146,1.691-2.414,1.691c-0.787,0-1.669-0.302-2.125-0.757l0.609-0.612
		c0.398,0.324,0.937,0.601,1.488,0.601c0.579,0,1.171-0.265,1.171-0.851c0-0.697-0.715-0.994-1.365-1.405
		c-0.786-0.491-1.476-0.897-1.476-1.716c0-0.945,1.076-1.547,2.291-1.547c0.676,0,1.338,0.242,1.695,0.553L79.494,71.081z
		 M73.576,71.081c-0.494-0.285-0.895-0.384-1.268-0.384c-0.441,0-1.006,0.181-1.006,0.684c0,0.505,0.635,0.756,1.421,1.271
		c0.882,0.587,1.461,1.08,1.461,1.92c0,1.006-1.144,1.691-2.415,1.691c-0.786,0-1.668-0.302-2.123-0.757l0.607-0.612
		c0.398,0.324,0.938,0.601,1.49,0.601c0.579,0,1.172-0.265,1.172-0.851c0-0.697-0.716-0.994-1.366-1.405
		c-0.786-0.491-1.476-0.897-1.476-1.716c0-0.945,1.076-1.547,2.289-1.547c0.677,0,1.339,0.242,1.696,0.553L73.576,71.081z
		 M66.103,75.471c-0.484,0.422-1.091,0.795-1.726,0.795c-1.159,0-1.959-0.723-1.959-1.851c0-1.042,1.022-1.703,2.456-2.073
		l1.669-0.456c-0.056-0.731-0.704-1.2-1.379-1.2c-0.801,0-1.311,0.291-1.807,0.648l-0.483-0.538
		c0.689-0.575,1.394-0.819,2.358-0.819c1.035,0,2.553,0.293,2.553,2.043v2.638c0,0.452,0.068,1.03,0.302,1.466h-1.351
		c-0.165-0.254-0.193-0.639-0.193-1.023L66.103,75.471z M65.358,72.905c-1.09,0.286-1.657,0.743-1.657,1.497
		c0,0.623,0.497,1.021,0.993,1.021c0.883,0,2.015-0.949,1.849-2.822L65.358,72.905z M59.125,67.305h1.242v8.818h-1.242V67.305z
		 M56.603,75.902c0,2.293-1.643,3.217-3.505,3.217c-1.02,0-2.04-0.169-2.84-0.602l0.345-0.709c0.84,0.42,1.612,0.541,2.467,0.541
		c1.422,0,2.292-0.791,2.292-2.363v-0.813h-0.029c-0.484,0.588-1.214,1.093-2.303,1.093c-1.904,0-3.09-1.298-3.09-3.218
		c0-1.56,1.325-3.071,3.296-3.071c0.83,0,1.712,0.361,2.098,0.976h0.029v-0.829h1.242v5.779H56.603z M55.362,72.93
		c0-1.129-0.705-2.186-2.056-2.186c-1.436,0-2.027,0.986-2.027,2.256c0,1.284,0.634,2.495,1.944,2.495
		C54.727,75.495,55.362,74.261,55.362,72.93"/>
</g>
</svg>
